<?xml version="1.0" encoding="iso-8859-1"?>
<!-- Generator: Adobe Illustrator 18.0.0, SVG Export Plug-In . SVG Version: 6.00 Build 0)  -->
<!DOCTYPE svg PUBLIC "-//W3C//DTD SVG 1.1//EN" "http://www.w3.org/Graphics/SVG/1.1/DTD/svg11.dtd">
<svg version="1.1" id="Capa_1" xmlns="http://www.w3.org/2000/svg" xmlns:xlink="http://www.w3.org/1999/xlink" x="0px" y="0px"
	 viewBox="0 0 58.206 58.206" style="enable-background:new 0 0 58.206 58.206;" xml:space="preserve">
<g>
	<path d="M56.481,43.305c-0.116-0.367-0.434-0.634-0.814-0.688l-7.777-1.089l-3.472-6.78c-0.342-0.668-1.438-0.668-1.779,0
		l-3.472,6.78l-7.777,1.089c-0.381,0.054-0.698,0.32-0.814,0.688s-0.012,0.768,0.269,1.031l5.605,5.267l-1.322,7.427
		c-0.066,0.373,0.084,0.751,0.388,0.978c0.305,0.227,0.712,0.263,1.049,0.089l6.965-3.528l6.964,3.528
		c0.143,0.073,0.298,0.108,0.452,0.108c0.211,0,0.421-0.066,0.597-0.197c0.304-0.226,0.454-0.604,0.388-0.978l-1.321-7.427
		l5.605-5.267C56.492,44.073,56.597,43.672,56.481,43.305z M48.843,48.516c-0.246,0.231-0.359,0.571-0.3,0.903l1.064,5.987
		l-5.628-2.852c-0.285-0.145-0.619-0.145-0.904,0l-5.629,2.852l1.065-5.987c0.06-0.332-0.054-0.672-0.3-0.903l-4.479-4.207
		l6.225-0.872c0.322-0.045,0.603-0.244,0.751-0.534l2.818-5.504l2.818,5.504c0.148,0.29,0.429,0.489,0.751,0.534l6.225,0.872
		L48.843,48.516z"/>
	<path d="M24.314,29.965c0.326,0.009,0.651,0.018,0.982,0.023C25.752,29.996,26.213,30,26.678,30s0.926-0.004,1.383-0.011
		c0.33-0.005,0.656-0.015,0.982-0.023c0.116-0.003,0.234-0.005,0.349-0.008c11.253-0.359,19.648-2.915,22.286-5.668V23v-0.5V22
		v-7.111C46.811,18.232,36.522,20,26.678,20s-20.133-1.768-25-5.111V22v0.5V23v1.289c2.638,2.754,11.033,5.31,22.286,5.668
		C24.08,29.96,24.198,29.962,24.314,29.965z"/>
	<path d="M51.678,11.306V9.5V9c0-0.168-0.056-0.319-0.135-0.458C50.421,4.241,41.793,0,26.678,0C11.601,0,2.982,4.22,1.824,8.51
		C1.74,8.657,1.678,8.818,1.678,9v0.5v1.806C4.514,14.267,13.994,17,26.678,17S48.842,14.267,51.678,11.306z"/>
	<path d="M26.678,46.201c-12.346,0-20.866-2.29-25-5.201v8.201c0,0.162,0.043,0.315,0.117,0.451
		c1.181,4.895,11.747,8.549,24.883,8.549c1.799,0,3.544-0.075,5.23-0.206l1.303-7.318l-4.786-4.497
		C27.848,46.191,27.272,46.201,26.678,46.201z"/>
	<path d="M24.224,42.234c-0.28-0.264-0.385-0.664-0.269-1.031s0.434-0.634,0.814-0.688l12.437-1.741l3.515-6.864
		c-3.273,0.624-7.086,1.041-11.437,1.16c-0.87,0.027-1.74,0.041-2.606,0.041c-0.869,0-1.742-0.014-2.614-0.042
		c-7.341-0.201-13.191-1.238-17.403-2.717C4.682,29.685,2.987,28.899,1.678,28v7.111v0.5v0.5V37.4
		c2.728,2.848,11.623,5.477,23.457,5.69L24.224,42.234z"/>
</g>
<g>
</g>
<g>
</g>
<g>
</g>
<g>
</g>
<g>
</g>
<g>
</g>
<g>
</g>
<g>
</g>
<g>
</g>
<g>
</g>
<g>
</g>
<g>
</g>
<g>
</g>
<g>
</g>
<g>
</g>
</svg>
