<?xml version="1.0" ?><svg width="64px" height="64px" viewBox="0 0 64 64" xmlns="http://www.w3.org/2000/svg"><g id="a"/><g id="b"/><g id="c"/><g id="d"/><g id="e"/><g id="f"/><g id="g"/><g id="h"><path d="M58.55,16.63l-7.83-3.86c-.89-.44-1.94-.34-2.74,.24l-11.46,8.46h-9.04l-11.46-8.46c-.39-.29-.85-.46-1.34-.51-.48-.04-.97,.05-1.4,.26l-7.83,3.86c-.9,.44-1.45,1.34-1.45,2.34v16.7c0,1,.56,1.9,1.45,2.34l6.35,3.13-1.69,2.08c-.34,.42-.48,.98-.37,1.51,.11,.54,.45,.99,.94,1.25l10.02,5.29c.97,.51,2.19,.14,2.73-.88l8.08-17.23h.97l8.11,17.27c.36,.68,1.05,1.06,1.77,1.06,.32,0,.63-.07,.93-.23l10.02-5.29c.48-.25,.83-.71,.94-1.25,.11-.54-.02-1.09-.37-1.51l-1.69-2.08,6.35-3.13c.9-.44,1.45-1.34,1.45-2.34V18.97c0-1-.56-1.9-1.45-2.34Zm-20.7,11.81v-2.23l20.15-6.84v15.91l-20.15-6.84Zm11.32-13.81c.19-.14,.45-.17,.66-.06l6.56,3.23-18.54,6.29v-1.11l11.32-8.35Zm-35-.06c.1-.05,.22-.07,.34-.06,.12,.01,.23,.05,.33,.12l11.32,8.35v1.11L7.61,17.8l6.56-3.23ZM6,35.28v-15.91l20.15,6.84v2.23l-20.15,6.84Zm1.61,1.57l18.54-6.29v1.11l-11.63,8.58-.7-.35h0l-6.2-3.06Zm14.03,12.66l-9.83-5.19,1.84-2.27,.53,.26c.14,.07,.29,.1,.44,.1,.21,0,.42-.07,.59-.2l12.26-9.05h1.82l-7.67,16.33Zm6.52-18.33v-7.7h7.7v7.7h-7.7Zm14.23,18.38l-7.68-16.38h1.82l12.26,9.05c.3,.22,.7,.26,1.04,.09l.53-.26,1.84,2.27-9.81,5.23Zm7.81-9.64h0l-.7,.35-11.63-8.58v-1.11l18.54,6.29-6.21,3.06Z"/></g><g id="i"/><g id="j"/><g id="k"/><g id="l"/><g id="m"/><g id="n"/><g id="o"/><g id="p"/><g id="q"/><g id="r"/><g id="s"/><g id="t"/><g id="u"/><g id="v"/><g id="w"/><g id="x"/><g id="y"/><g id="a`"/><g id="aa"/><g id="ab"/><g id="ac"/><g id="ad"/><g id="ae"/><g id="af"/><g id="ag"/><g id="ah"/><g id="ai"/><g id="aj"/><g id="ak"/><g id="al"/><g id="am"/><g id="an"/><g id="ao"/><g id="ap"/><g id="aq"/><g id="ar"/><g id="as"/><g id="at"/><g id="au"/><g id="av"/><g id="aw"/><g id="ax"/></svg>