<?xml version="1.0" ?><svg width="64px" height="64px" viewBox="0 0 64 64" xmlns="http://www.w3.org/2000/svg"><g id="a"/><g id="b"/><g id="c"/><g id="d"><path d="M58.24,24.24l-17.69-1.38-6.78-16.4c-.4-.97-1.53-1.44-2.5-1.04-.47,.2-.84,.56-1.04,1.04l-6.78,16.4-17.69,1.38c-.51,.04-.97,.28-1.31,.66-.33,.39-.49,.88-.45,1.39,.04,.5,.28,.98,.67,1.31l13.5,11.51-4.16,17.25c-.25,1.03,.39,2.06,1.41,2.31,.49,.12,1.02,.03,1.45-.23l15.12-9.29,15.12,9.29c.92,.56,2.09,.26,2.63-.63,.27-.44,.35-.95,.23-1.45l-4.16-17.25,13.5-11.51c.8-.68,.9-1.89,.21-2.7-.33-.38-.8-.63-1.31-.67Zm-2.92,1.76l-22.32,7.25v-8.97l22.32,1.71Zm-17.01-3.31l-5.31-.41V9.84l5.31,12.85Zm-7.31-12.85v23.41l-8.53-2.77,2.6-6.28,5.93-14.35Zm-10.43,20.02l-11.83-3.84,13.86-1.08-2.03,4.92Zm-12.5-1.96l22.31,7.25-5.27,7.25L8.07,27.89Zm11.81,12.67l4.05,3.46-7.31,10.06,3.26-13.52Zm-1.67,14.74l13.79-18.98,5.27,7.25-19.06,11.73Zm20.24-10.11l7.31,10.06-11.85-7.27,4.54-2.79Zm8.96,8.93l-13.79-18.98,8.53-2.77,5.27,21.75Zm-2.11-17.2l-1.25-5.18,11.82-3.84-10.58,9.02Z"/></g><g id="e"/><g id="f"/><g id="g"/><g id="h"/><g id="i"/><g id="j"/><g id="k"/><g id="l"/><g id="m"/><g id="n"/><g id="o"/><g id="p"/><g id="q"/><g id="r"/><g id="s"/><g id="t"/><g id="u"/><g id="v"/><g id="w"/><g id="x"/><g id="y"/><g id="a`"/><g id="aa"/><g id="ab"/><g id="ac"/><g id="ad"/><g id="ae"/><g id="af"/><g id="ag"/><g id="ah"/><g id="ai"/><g id="aj"/><g id="ak"/><g id="al"/><g id="am"/><g id="an"/><g id="ao"/><g id="ap"/><g id="aq"/><g id="ar"/><g id="as"/><g id="at"/><g id="au"/><g id="av"/><g id="aw"/><g id="ax"/></svg>